<svg xmlns="http://www.w3.org/2000/svg" xmlns:xlink="http://www.w3.org/1999/xlink" preserveAspectRatio="xMidYMid" width="611.969" height="611.969" viewBox="0 0 611.969 611.969">
  <defs>
    <style>
      .cls-1 {
        fill: red;
        fill-rule: evenodd;
      }
    </style>
  </defs>
  <path d="M378.699,305.970 L596.885,87.784 C616.969,67.700 616.969,35.137 596.885,15.056 C576.800,-5.028 544.240,-5.028 524.156,15.056 L305.967,233.244 L87.779,15.053 C67.694,-5.031 35.134,-5.031 15.050,15.053 C-5.031,35.137 -5.031,67.700 15.050,87.782 L233.239,305.967 L15.050,524.156 C-5.031,544.240 -5.031,576.803 15.050,596.884 C35.134,616.969 67.694,616.969 87.779,596.884 L305.967,378.696 L524.156,596.884 C544.237,616.969 576.800,616.969 596.885,596.884 C616.969,576.800 616.969,544.240 596.885,524.156 L378.699,305.970 Z" class="cls-1"/>
</svg>
