<svg xmlns="http://www.w3.org/2000/svg" xmlns:xlink="http://www.w3.org/1999/xlink" preserveAspectRatio="xMidYMid" width="799" height="679" viewBox="0 0 799 679">
  <defs>
    <style>
      .cls-1 {
        fill: #48bc15;
        fill-rule: evenodd;
      }
    </style>
  </defs>
  <path d="M794.596,400.352 C739.227,479.730 683.860,558.945 628.327,638.323 C624.372,644.087 619.758,646.887 615.144,646.887 C610.860,646.887 606.575,644.417 602.950,639.641 C572.629,600.445 542.474,561.415 512.318,522.220 C507.704,516.126 503.585,509.539 499.465,503.116 C496.004,497.681 496.664,492.411 500.783,487.471 C502.266,485.659 503.585,484.012 505.233,482.365 C510.835,476.601 515.449,473.637 520.393,473.637 C524.348,473.637 528.632,475.613 533.740,479.401 C556.481,496.364 578.727,513.986 601.302,531.442 C605.422,534.735 609.541,537.864 613.991,541.323 C622.889,531.112 631.458,521.232 640.027,511.351 C678.257,467.049 716.487,422.914 754.718,378.614 C762.298,369.885 767.241,365.603 772.844,365.603 C777.787,365.603 783.225,368.897 791.135,375.320 C802.175,384.377 803.000,388.329 794.596,400.352 ZM616.792,491.094 C614.321,493.729 612.014,496.529 609.706,499.164 C606.575,496.858 603.610,494.388 600.479,492.082 C584.824,479.895 568.345,467.049 551.867,454.863 C541.321,446.958 530.939,443.171 520.393,443.171 C503.090,443.171 491.061,453.381 483.481,460.956 C481.009,463.591 479.031,465.897 477.219,468.038 C464.531,483.354 463.048,503.116 473.594,519.585 L474.912,521.561 C478.867,527.818 483.151,534.406 488.095,540.829 C506.056,564.379 524.512,588.094 542.639,611.644 C486.117,653.969 415.754,679.000 339.623,679.000 C152.097,679.000 0.000,526.996 0.000,339.583 C0.000,152.170 152.097,0.164 339.458,-0.000 C526.984,-0.000 679.081,152.005 679.081,339.418 C679.081,372.520 674.302,404.469 665.404,434.771 C649.254,453.546 633.106,472.319 616.792,491.094 ZM322.650,227.267 C328.747,224.632 335.174,223.644 341.766,223.314 C366.977,221.832 390.871,226.443 413.612,237.477 C424.981,242.912 428.772,241.265 432.562,229.408 C436.517,216.891 439.977,204.210 443.602,191.694 C446.075,183.295 443.108,177.531 435.033,174.073 C420.533,167.650 405.537,163.039 389.718,160.569 C369.120,157.440 369.285,157.275 369.120,136.689 C368.954,107.540 368.954,107.540 339.788,107.540 C335.668,107.540 331.383,107.375 327.099,107.540 C313.422,107.869 311.115,110.175 310.785,124.009 C310.785,130.102 310.785,136.360 310.785,142.453 C310.621,160.734 310.621,160.404 293.153,166.827 C250.804,182.143 224.768,210.963 221.966,257.075 C219.495,297.917 240.752,325.420 274.368,345.511 C295.131,357.863 317.871,365.274 339.788,374.826 C348.356,378.614 356.431,382.895 363.681,388.823 C384.774,406.116 380.819,435.101 355.937,445.970 C342.425,451.734 328.418,453.216 313.916,451.405 C291.506,448.605 270.084,442.841 249.980,432.301 C238.116,426.043 234.655,427.690 230.700,440.535 C227.240,451.570 224.273,462.767 221.143,473.966 C217.023,488.953 218.506,492.576 232.842,499.493 C251.133,508.221 270.578,512.833 290.517,515.962 C306.172,518.432 306.666,519.091 306.831,535.229 C306.831,542.476 306.831,549.887 306.996,557.133 C307.160,566.355 311.610,571.790 321.002,571.955 C331.878,572.284 342.754,572.284 353.465,571.955 C362.199,571.625 366.812,566.849 366.812,557.956 C366.812,547.910 367.307,537.864 366.812,527.818 C366.318,517.609 370.602,512.339 380.490,509.704 C403.066,503.610 422.345,491.423 437.176,473.472 C478.208,423.573 462.388,350.617 403.889,318.667 C385.598,308.622 366.318,300.881 347.039,292.976 C335.998,288.365 325.287,282.930 315.894,275.519 C297.438,260.698 300.898,236.819 322.650,227.267 Z" class="cls-1"/>
</svg>
