<?xml version="1.0" encoding="iso-8859-1"?>
<!-- Generator: Adobe Illustrator 19.0.0, SVG Export Plug-In . SVG Version: 6.00 Build 0)  -->
<svg version="1.1" id="Layer_1" xmlns="http://www.w3.org/2000/svg" xmlns:xlink="http://www.w3.org/1999/xlink" x="0px" y="0px"
	 viewBox="0 0 512 512" style="enable-background:new 0 0 512 512;" xml:space="preserve">
	   <symbol id="studying" viewBox="0 0 512 512">
<path style="fill:#FF0F4D;" d="M278.302,0C270.754,0,263.314,0.46,256,1.328l-20.898,266.318L256,512h135.583V336.022
	c44.864-34.181,73.827-88.161,73.827-148.916C465.41,83.771,381.64,0,278.302,0z"/>
<path style="fill:#FF6E7A;" d="M91.196,187.108L46.59,315.375h44.606v109.702h99.314V512H256V1.328
	C163.179,12.355,91.196,91.319,91.196,187.108z"/>

	<path style="fill:#B4B4B4;" d="M321.911,187.108c0-24.046-19.563-43.608-43.608-43.608l-20.898,43.608l20.898,43.608
		C302.347,230.716,321.911,211.153,321.911,187.108z"/>
	<path style="fill:#B4B4B4;" d="M410.156,202.781v-31.347h-29.321c-2.576-16.917-9.257-32.501-18.986-45.708l20.769-20.77
		L360.453,82.79l-20.769,20.77c-13.208-9.729-28.791-16.41-45.708-18.986V55.254h-15.673l-10.449,38.787l10.449,20.698l0,0
		c39.904,0,72.369,32.464,72.369,72.369c0,39.904-32.464,72.369-72.369,72.369l0,0l-10.449,18.989l10.449,40.495h15.673v-29.321
		c16.917-2.576,32.501-9.257,45.708-18.986l20.769,20.77l22.165-22.165l-20.769-20.77c9.729-13.208,16.41-28.791,18.986-45.708
		h29.321V202.781z"/>


	<path style="fill:#E0E0E0;" d="M234.695,187.108c0,24.046,19.563,43.608,43.608,43.608v-87.217
		C254.257,143.499,234.695,163.062,234.695,187.108z"/>
	<path style="fill:#E0E0E0;" d="M205.934,187.108c0-39.905,32.464-72.369,72.369-72.369V55.254h-15.673v29.321
		c-16.917,2.576-32.501,9.257-45.708,18.986l-20.77-20.77l-22.165,22.165l20.77,20.77c-9.729,13.208-16.411,28.791-18.986,45.708
		h-29.321v31.347h29.321c2.576,16.917,9.257,32.501,18.986,45.708l-20.77,20.769l22.165,22.165l20.77-20.77
		c13.208,9.729,28.791,16.41,45.708,18.986v29.321h15.673v-59.485C238.398,259.475,205.934,227.011,205.934,187.108z"/>
 </symbol>
</svg>
