<svg xmlns="http://www.w3.org/2000/svg" xmlns:xlink="http://www.w3.org/1999/xlink" preserveAspectRatio="xMidYMid" width="97" height="92" viewBox="0 0 97 92">
  <defs>
    <style>
      .cls-1 {
        fill: #48bc15;
        fill-rule: evenodd;
      }
    </style>
  </defs>
  <path d="M97.408,55.884 L80.089,88.635 C79.240,90.265 76.839,91.986 74.984,91.986 L5.531,92.000 C4.064,92.000 2.657,91.418 1.620,90.382 C0.583,89.345 0.001,87.940 0.001,86.474 L0.012,32.584 C0.012,29.536 2.485,27.063 5.535,27.060 L10.613,27.055 L10.613,31.763 L7.216,31.763 C6.551,31.763 5.912,32.027 5.442,32.497 C4.972,32.967 4.707,33.605 4.707,34.270 L4.712,84.788 C4.712,86.173 5.836,87.295 7.221,87.295 L10.700,87.295 L27.114,54.115 C28.042,52.262 29.794,50.765 31.646,50.765 L71.844,50.765 L71.857,37.412 C74.483,37.655 76.553,39.831 76.553,42.516 L76.553,50.765 L94.990,50.765 C97.167,50.787 99.000,52.938 97.408,55.884 ZM13.815,70.592 C13.665,54.078 13.815,4.531 13.815,4.531 C13.815,2.031 15.850,-0.000 18.349,-0.000 L54.658,-0.000 C55.238,-0.000 55.793,0.243 56.186,0.671 L67.924,13.415 C68.277,13.798 68.474,14.301 68.474,14.821 L68.474,47.835 L64.666,47.835 L64.666,17.672 C64.666,17.150 64.242,16.726 63.719,16.726 L54.734,16.726 C53.684,16.726 52.828,15.873 52.828,14.825 L52.828,4.751 C52.828,4.230 52.404,3.806 51.882,3.806 L18.352,3.806 C17.951,3.806 17.625,4.131 17.625,4.531 L17.625,66.439 L14.711,72.330 C14.711,72.328 13.830,72.265 13.815,70.592 ZM56.641,12.922 L62.297,12.922 L56.641,6.779 L56.641,12.922 ZM58.703,20.602 L23.612,20.602 C22.319,20.602 21.269,21.652 21.269,22.943 C21.269,24.234 22.320,25.285 23.612,25.285 L58.703,25.285 C59.997,25.285 61.049,24.233 61.049,22.943 C61.048,21.653 59.995,20.602 58.703,20.602 ZM61.048,36.578 C61.048,35.287 59.995,34.239 58.703,34.239 L23.612,34.239 C22.319,34.239 21.269,35.289 21.269,36.578 C21.269,37.869 22.320,38.918 23.612,38.918 L58.703,38.918 C59.995,38.918 61.048,37.869 61.048,36.578 ZM21.269,50.306 C21.269,51.597 22.319,52.645 23.611,52.645 L24.452,52.645 C25.933,48.521 29.605,47.965 29.605,47.965 L23.611,47.965 C22.321,47.965 21.269,49.014 21.269,50.306 Z" class="cls-1"/>
</svg>
