<?xml version="1.0" encoding="iso-8859-1"?>
<!-- Generator: Adobe Illustrator 19.0.0, SVG Export Plug-In . SVG Version: 6.00 Build 0)  -->
<svg version="1.1" id="Capa_1" xmlns="http://www.w3.org/2000/svg" xmlns:xlink="http://www.w3.org/1999/xlink" x="0px" y="0px"
	  style="enable-background:new 0 0 512 512;" xml:space="preserve">
	  <symbol id="increase" viewBox="0 0 512 512">
<path style="fill:#FEDB41;" d="M151.999,489.499V337.5c0-8.291-6.709-15-15-15H45c-8.291,0-15,6.709-15,15v151.999H151.999z"/>
<path style="fill:#1DE8F1;" d="M301.998,489.499V247.5c0-8.291-6.709-15-15-15h-89.999c-8.291,0-15,6.709-15,15v241.999H301.998z"/>
<path style="fill:#FD003A;" d="M286.998,142.501h45v346.998h119.999V142.501h45c6.064,0,11.543-3.647,13.857-9.258
	c2.329-5.61,1.04-12.056-3.252-16.348L402.603,11.896c-5.859-5.859-15.352-5.859-21.211,0L276.392,116.895
	c-4.292,4.292-5.581,10.737-3.252,16.348C275.455,138.853,280.934,142.501,286.998,142.501z"/>
<path style="fill:#FFCC33;" d="M136.999,322.5h-46v166.999h61V337.5C151.999,329.209,145.29,322.5,136.999,322.5z"/>
<path style="fill:#1BD9DE;" d="M286.998,232.501h-45v256.999h60V247.5C301.998,239.209,295.289,232.501,286.998,232.501z"/>
<path style="fill:#E50027;" d="M451.997,489.499V142.501h45c6.064,0,11.543-3.647,13.857-9.258c2.329-5.61,1.04-12.056-3.252-16.348
	L402.603,11.896c-2.93-2.93-6.768-4.395-10.605-4.395v481.997h60V489.499z"/>
<path style="fill:#0D70B2;" d="M496.997,474.499c-387.767,0-384.894,0-481.997,0c-8.291,0-15,6.709-15,15c0,8.291,6.709,15,15,15
	h481.997c8.291,0,15-6.709,15-15C511.997,481.208,505.288,474.499,496.997,474.499z"/>
<path style="fill:#095C92;" d="M496.997,474.499c-115.573,0-196.088,0-254.999,0v30h254.999c8.291,0,15-6.709,15-15
	C511.997,481.208,505.288,474.499,496.997,474.499z"/>
 </symbol>
</svg>
