<?xml version="1.0" encoding="iso-8859-1"?>
<!-- Generator: Adobe Illustrator 19.0.0, SVG Export Plug-In . SVG Version: 6.00 Build 0)  -->
<svg version="1.1" id="Layer_1" xmlns="http://www.w3.org/2000/svg" xmlns:xlink="http://www.w3.org/1999/xlink" x="0px" y="0px"
	 viewBox="0 0 68.848 68.848" style="enable-background:new 0 0 68.848 68.848;" xml:space="preserve">

	  <symbol id="lab" viewBox="0 0 68.848 68.848">
		<path style="fill:#FFCC3B;" d="M60.311,57.186C54.135,46.903,41.353,30.169,41.353,25.77c0-4.4,0.105-25.08,0.105-25.08
			l-14.01,0.038c0,0,0.047,20.642,0.047,25.042c0,4.399-12.784,21.134-18.959,31.416c-3.238,5.393-5.673,11.662,4.965,11.662
			c4.065,0,37.782,0,41.845,0C65.986,68.848,63.55,62.578,60.311,57.186z"/>
		<path style="fill:#009658;" d="M44.788,41.382c-6.628,0.693-13.381-1.37-19.933-1.228c-3.241,5.049-7.595,11.162-10.299,15.663
			c-2.485,4.139-4.355,8.953,3.808,8.953c3.121,0,28.997,0,32.118,0c8.166,0,6.295-4.814,3.812-8.953
			C51.805,51.675,47.917,46.169,44.788,41.382z"/>
		<path style="opacity:0.2;fill:#231F20;enable-background:new    ;" d="M33.666,49.957c0-1.383-1.122-2.498-2.503-2.498
			c-1.381,0-2.498,1.115-2.498,2.498s1.117,2.502,2.498,2.502C32.544,52.459,33.666,51.34,33.666,49.957z"/>
			
		<circle style="opacity:0.2;fill:#231F20;enable-background:new    ;" cx="34.423" cy="59.631" r="2.5"/>
		<circle style="opacity:0.2;fill:#231F20;enable-background:new    ;" cx="37.243" cy="52.459" r="1.303"/>
		<circle style="opacity:0.2;fill:#231F20;enable-background:new    ;" cx="34.971" cy="45.315" r="1.304"/>
	
	<rect x="26.093" style="fill:#FFCC3B;" width="16.663" height="3.946"/>
</symbol>
</svg>
