<?xml version="1.0" encoding="iso-8859-1"?>
<!-- Generator: Adobe Illustrator 19.0.0, SVG Export Plug-In . SVG Version: 6.00 Build 0)  -->
<svg version="1.1" id="Layer_1" xmlns="http://www.w3.org/2000/svg" xmlns:xlink="http://www.w3.org/1999/xlink" x="0px" y="0px"
	 viewBox="0 0 512 512" style="enable-background:new 0 0 512 512;" xml:space="preserve">
<polygon style="fill:#E21B1B;" points="0,470.664 512,470.664 448,329.336 64,329.336 "/>
<rect x="70" y="47.336" style="fill:#6B6B6B;" width="372" height="244"/>
<path style="fill:#333333;" d="M436,53.336v232H76v-232H436 M448,41.336H64v256h384V41.336z"/>
<g style="opacity:0.2;">
	<polygon style="fill:#FFFFFF;" points="76.016,125.736 76.016,53.352 148.4,53.352 	"/>
</g>
	 <symbol id="work" viewBox="0 0 512 512">
	<path style="fill:#FFFFFF;" d="M116.456,155.752c0.192,4.896,4.312,8.712,9.208,8.52c0.28-0.008,0.568-0.032,0.848-0.072
		c3.08,0.08,6.152-0.424,9.048-1.48l1.208,5.696c-3.64,1.392-7.504,2.072-11.4,2.016c-8.496,0.776-16-5.488-16.776-13.976
		c-0.08-0.832-0.08-1.672-0.024-2.512c-0.792-8.896,5.776-16.744,14.672-17.536c0.424-0.04,0.856-0.056,1.28-0.064
		c7.832,0.008,14.176,6.36,14.176,14.192c0,0.56-0.032,1.128-0.104,1.688c0.008,1.168-0.08,2.336-0.264,3.488L116.456,155.752z
		 M130.8,149.984c0.552-3.832-2.112-7.384-5.944-7.928c-0.272-0.04-0.552-0.064-0.824-0.072c-4.232,0.264-7.544,3.76-7.576,8H130.8z
		"/>
	<path style="fill:#FFFFFF;" d="M161.84,149.048v5.704h-17.096v-5.704H161.84z"/>
	<path style="fill:#FFFFFF;" d="M168.272,122.176h8.312v47.584h-8.312V122.176z"/>
	<path style="fill:#FFFFFF;" d="M191.328,155.752c0.192,4.896,4.312,8.712,9.208,8.52c0.28-0.008,0.568-0.032,0.848-0.072
		c3.072,0.072,6.128-0.424,9.016-1.48l1.208,5.696c-3.64,1.392-7.504,2.072-11.4,2.016c-8.496,0.776-16-5.488-16.776-13.976
		c-0.08-0.832-0.08-1.672-0.024-2.512c-0.792-8.896,5.776-16.744,14.672-17.536c0.424-0.04,0.856-0.056,1.28-0.064
		c7.832,0.008,14.176,6.36,14.176,14.192c0,0.56-0.032,1.128-0.104,1.688c0.008,1.168-0.08,2.336-0.264,3.488L191.328,155.752z
		 M205.672,149.984c0.552-3.832-2.112-7.384-5.944-7.928c-0.272-0.04-0.552-0.064-0.824-0.072c-4.232,0.264-7.544,3.76-7.576,8
		H205.672z"/>
	<path style="fill:#FFFFFF;" d="M238.456,169.76l-0.536-3.616h-0.2c-2.376,2.856-5.936,4.456-9.648,4.352
		c-5.336,0.32-9.92-3.752-10.24-9.088c-0.016-0.2-0.016-0.408-0.016-0.608c0-8.248,7.304-12.4,19.368-12.336v-0.528
		c0-2.152-0.872-5.704-6.64-5.704c-3.096,0-6.136,0.824-8.8,2.4l-1.6-5.36c3.608-1.976,7.68-2.968,11.792-2.88
		c6.696-0.76,12.744,4.048,13.512,10.752c0.112,0.992,0.104,2-0.032,2.992v11.792c-0.04,2.624,0.12,5.24,0.472,7.84L238.456,169.76z
		 M237.376,153.808c-5.832-0.136-11.392,1.144-11.392,6.104c-0.216,2.376,1.544,4.472,3.92,4.688c0.256,0.024,0.512,0.024,0.768,0
		c2.88,0.04,5.456-1.768,6.4-4.488c0.184-0.584,0.272-1.2,0.264-1.816L237.376,153.808z"/>
	<path style="fill:#FFFFFF;" d="M254.144,147.64c0-4.424-0.064-7.568-0.264-10.52h7.2l0.264,6.232h0.256
		c1.176-3.984,4.76-6.784,8.912-6.968c0.656-0.008,1.304,0.064,1.944,0.2v7.776c-0.792-0.168-1.592-0.256-2.4-0.264
		c-3.68-0.088-6.84,2.584-7.368,6.224c-0.168,0.84-0.264,1.688-0.272,2.544v16.896h-8.24L254.144,147.64z"/>
	<path style="fill:#FFFFFF;" d="M278.008,146.832c0-3.752-0.064-6.896-0.264-9.72h7.2l0.408,4.896h0.248
		c2.216-3.592,6.184-5.728,10.4-5.6c5.696,0,11.592,3.688,11.592,14.008v19.344h-8.24v-18.4c0-4.688-1.744-8.24-6.232-8.24
		c-2.936,0.072-5.504,2-6.4,4.8c-0.256,0.872-0.376,1.776-0.336,2.68v19.2h-8.376L278.008,146.832L278.008,146.832z"/>
	<path style="fill:#FFFFFF;" d="M325.136,128c0.072,2.552-1.944,4.68-4.496,4.752s-4.68-1.944-4.752-4.496
		c-0.072-2.552,1.944-4.68,4.496-4.752c0.04,0,0.088,0,0.128,0c2.416-0.136,4.48,1.704,4.616,4.12
		C325.136,127.752,325.136,127.872,325.136,128z M316.336,169.752V137.12h8.312v32.64L316.336,169.752z"/>
	<path style="fill:#FFFFFF;" d="M333.52,146.832c0-3.752-0.064-6.896-0.264-9.72h7.2l0.408,4.896h0.192
		c2.216-3.592,6.184-5.728,10.4-5.6c5.696,0,11.592,3.688,11.592,14.008v19.344h-8.24v-18.4c0-4.688-1.744-8.24-6.232-8.24
		c-2.936,0.072-5.504,2-6.4,4.8c-0.256,0.872-0.376,1.776-0.336,2.68v19.2h-8.32V146.832z"/>
	<path style="fill:#FFFFFF;" d="M401.68,137.12c-0.136,2.216-0.264,4.896-0.264,9.384v18.504c0.6,5.4-1.144,10.792-4.8,14.816
		c-3.584,2.8-8.072,4.208-12.616,3.944c-3.96,0.12-7.88-0.784-11.392-2.616l1.808-6.224c2.912,1.616,6.184,2.472,9.512,2.48
		c4.768,0.44,8.992-3.072,9.432-7.84c0.064-0.672,0.048-1.344-0.048-2.008v-2.816h-0.136c-2.136,3.128-5.728,4.944-9.512,4.8
		c-7.992-0.288-14.232-7-13.944-14.992c0.008-0.32,0.032-0.632,0.064-0.952c-0.888-8.584,5.352-16.272,13.936-17.16
		c0.288-0.032,0.584-0.056,0.88-0.064c3.856-0.216,7.512,1.76,9.456,5.096h0.136l0.336-4.36L401.68,137.12z M393.176,150.192
		c0.016-0.744-0.08-1.488-0.264-2.208c-0.728-3.112-3.512-5.312-6.704-5.296c-4.624,0-8.048,4-8.048,10.656
		c0,5.6,2.824,10.056,8,10.056c3.08-0.008,5.8-2.016,6.704-4.96c0.216-0.968,0.328-1.952,0.336-2.944L393.176,150.192z"/>
 </symbol>
<rect x="106.192" y="209.6" style="fill:#999999;" width="294.736" height="4"/>

</svg>
