<svg xmlns="http://www.w3.org/2000/svg" xmlns:xlink="http://www.w3.org/1999/xlink" preserveAspectRatio="xMidYMid" width="49.911" height="38.403" viewBox="0 0 611.656 470.625">
  <defs>
    <style>
      .cls-1 {
        fill: #26650a;
        fill-rule: evenodd;
      }
    </style>
  </defs>
  <path d="M7.057,258.834 C2.352,254.128 -0.001,247.068 -0.001,242.361 C-0.001,237.655 2.352,230.595 7.057,225.889 L39.992,192.943 C49.402,183.530 63.517,183.530 72.927,192.943 L75.279,195.297 L204.666,334.138 C209.371,338.844 216.429,338.844 221.134,334.138 L536.368,7.038 L538.721,7.038 L538.721,7.038 L538.721,7.038 C548.131,-2.375 562.246,-2.375 571.656,7.038 L604.591,39.983 C614.001,49.396 614.001,63.515 604.591,72.928 L604.591,72.928 L604.591,72.928 L228.191,463.566 C223.486,468.272 218.781,470.625 211.724,470.625 C204.666,470.625 199.961,468.272 195.256,463.566 L11.762,265.894 L7.057,258.834 Z" class="cls-1"/>
</svg>
